<svg xmlns="http://www.w3.org/2000/svg" viewBox="0 0 300 420" width="100%" style="max-width: 300px;">
  <g transform="translate(150, 210)">
    <g transform="scale(0.45) translate(-240.1045, -200.1045)">
      <path d="m406.036 416.872c-18.69-4.712-44.62-8.533-75.169-11.098-13.643-23.801-26.57-53.354-34.014-87.898 13.67-1.187 26.284-2.811 37.323-4.834 31.071-5.693 44.928-13.354 44.928-24.84 0-11.431-14.768-16.716-19.62-18.453-9.711-3.476-23.122-6.402-39.86-8.698-4.38-.602-8.412 2.461-9.013 6.839s2.462 8.413 6.839 9.013c27.252 3.738 39.667 8.538 44.13 11.279-13.488 8.429-51.899 12.551-67.682 13.873-6.526-41.275-4.045-83.292 7.111-124.112 3.432-7.318-5.005-14.766-12.017-9.817-36.42 26.78-83.556 18.917-110.188-11.527-3.536-4.042-9.943-3.509-12.786.998-10.599 16.791-28.752 26.815-48.561 26.815-31.624 0-57.353-25.729-57.353-57.353 0-34.177 29.74-60.338 62.677-57.104 4.035.39 7.72-2.283 8.593-6.237 8.427-38.157 51.227-59.141 86.757-41.304 15.303 7.67 15.344 14.276 21.974 14.276 6.657 0 6.44-6.491 21.978-14.278 35.504-17.824 78.322 3.13 86.753 41.306.873 3.954 4.563 6.627 8.593 6.237 32.95-3.236 62.677 22.94 62.677 57.104 0 43.431-46.667 71.083-84.676 50.437-3.881-2.109-8.738-.671-10.849 3.211-2.108 3.882-.671 8.739 3.212 10.848 48.517 26.353 108.313-8.841 108.313-64.497 0-40.446-32.906-73.352-73.353-73.352-.545 0-4.723-20.087-24.914-36.503-28.51-23.181-69.575-22.896-97.733.61-28.295-23.621-69.363-23.677-97.733-.61-20.955 17.038-24.083 36.503-24.914 36.503-40.446 0-73.353 32.906-73.353 73.352 0 40.447 32.906 73.353 73.353 73.353 21.96 0 42.326-9.629 56.185-26.174 29.488 27.501 72.394 33.573 107.649 17.083-8.145 38.108-8.939 75.78-3.407 111.847-23.803 1.329-49.935 1.431-75.559 0 4.292-27.987 4.602-55.934 1.371-83.1-.521-4.387-4.5-7.518-8.889-7-4.388.521-7.521 4.501-7 8.888 1.423 11.963 2.098 24.028 2.047 36.057-22.972 1.722-42.819 4.577-57.72 8.33-14.447 3.64-31.03 9.413-31.03 21.859 0 11.486 13.856 19.147 44.928 24.84 11.039 2.022 23.653 3.646 37.323 4.834-11.129 51.641-34.522 92.15-54.208 118.93-2.617 3.56-1.853 8.567 1.707 11.184 3.536 2.601 8.551 1.875 11.184-1.708 20.958-28.51 45.93-71.842 57.441-127.244 25.835 1.519 54.261 1.587 81.25 0 9.72 46.786 30.245 90.248 57.441 127.245 2.624 3.571 7.634 4.317 11.184 1.708 3.56-2.617 4.324-7.625 1.707-11.184-3.173-4.317-6.443-8.997-9.743-14.015 17.291 1.712 69.976 7.843 83.83 18.41-27.125 20.662-201.871 31.399-314.483 15.01-40.03-5.826-52.207-12.423-55.603-15.008 3.383-2.576 15.488-9.137 55.2-14.95 4.372-.64 7.397-4.703 6.758-9.074-.641-4.372-4.708-7.397-9.074-6.757-61.903 9.061-69.842 21.209-69.842 30.781 0 9.155 7.225 20.818 63.559 29.82 76.636 12.246 200.208 12.252 276.883 0 56.334-9.002 63.559-20.665 63.559-29.82-.002-10.539-11.126-18.043-36.071-24.331zm-287.446-128.714c6.45-4.031 27.975-10.728 70.746-14.063-.536 9.021-1.403 17.7-3.025 27.961-15.755-1.321-54.283-5.452-67.721-13.898zm92.31 104.049c3.131-9.393 4.884-19.238 5.209-29.264.144-4.416 3.819-7.885 8.256-7.736 4.416.143 7.879 3.839 7.736 8.255-.376 11.571-2.402 22.945-6.023 33.805-1.397 4.192-5.927 6.456-10.119 5.059s-6.457-5.928-5.059-10.119zm-.362 21.289c3.695 2.421 4.729 7.38 2.307 11.076-.74 1.13-1.476 2.208-2.197 3.234-2.54 3.614-7.533 4.482-11.146 1.941-3.614-2.542-4.482-7.532-1.94-11.146.624-.888 1.26-1.82 1.9-2.797 2.421-3.697 7.379-4.73 11.076-2.308z" fill="#FCA5A5"/>
    </g>
  </g>
</svg>